<svg xmlns="http://www.w3.org/2000/svg" viewBox="0 0 256 256" width="256" height="256">
  <!-- Scav Hound: fast and light. The same build as a Feral Pack hound, alone and bigger. -->
  <path d="M42 120 q-24 -12 -30 -44" stroke="#0C131B" stroke-width="13" stroke-linecap="round" fill="none"/>
  <rect x="38" y="112" width="122" height="46" rx="21" fill="#0C131B"/>
  <circle cx="60" cy="134" r="28" fill="#0C131B"/>
  <circle cx="142" cy="134" r="25" fill="#0C131B"/>
  <rect x="50" y="152" width="16" height="58" rx="8" fill="#0C131B"/>
  <rect x="76" y="152" width="16" height="50" rx="8" fill="#0C131B"/>
  <rect x="130" y="152" width="16" height="58" rx="8" fill="#0C131B"/>
  <rect x="152" y="152" width="16" height="50" rx="8" fill="#0C131B"/>
  <!-- neck and wedge head, low and forward -->
  <path d="M136 114 L172 74 L194 94 L162 130 z" fill="#0C131B"/>
  <path d="M168 68 L224 84 L228 102 L180 104 z" fill="#0C131B"/>
  <path d="M170 66 L164 34 L186 56 z" fill="#0C131B"/>
  <path d="M190 70 L192 40 L210 62 z" fill="#0C131B"/>
  <!-- open jaw -->
  <path d="M186 104 L226 106 L220 120 L190 114 z" fill="#0C131B"/>
  <circle cx="186" cy="82" r="7" fill="#C73E3A"/>
  <rect x="34" y="206" width="146" height="12" rx="6" fill="#0C131B"/>
</svg>
